<svg width="18" height="18" viewBox="0 0 18 18" fill="none" xmlns="http://www.w3.org/2000/svg">
<path opacity="0.7" d="M5.29091 0C3.88953 0.00602876 2.54727 0.565398 1.55633 1.55633C0.565398 2.54727 0.00602876 3.88953 0 5.29091V12.7091C0.00602876 14.1105 0.565398 15.4527 1.55633 16.4437C2.54727 17.4346 3.88953 17.994 5.29091 18H12.7091C14.1105 17.994 15.4527 17.4346 16.4437 16.4437C17.4346 15.4527 17.994 14.1105 18 12.7091V5.29364C17.9947 3.89178 17.4356 2.54882 16.4446 1.5573C15.4536 0.565778 14.1109 0.00603369 12.7091 0H5.29091ZM5.29091 1.63636H12.7091C13.1891 1.63593 13.6645 1.73017 14.1081 1.91367C14.5517 2.09718 14.9548 2.36635 15.2942 2.7058C15.6336 3.04524 15.9028 3.44828 16.0863 3.89187C16.2698 4.33545 16.3641 4.81087 16.3636 5.29091V12.7091C16.3641 13.1891 16.2698 13.6645 16.0863 14.1081C15.9028 14.5517 15.6336 14.9548 15.2942 15.2942C14.9548 15.6336 14.5517 15.9028 14.1081 16.0863C13.6645 16.2698 13.1891 16.3641 12.7091 16.3636H5.29364C4.81336 16.3644 4.33766 16.2705 3.89376 16.0871C3.44986 15.9038 3.04649 15.6346 2.70676 15.2952C2.36703 14.9557 2.09761 14.5525 1.91393 14.1088C1.73026 13.665 1.63593 13.1894 1.63636 12.7091V5.29364C1.63565 4.81338 1.72966 4.33771 1.91303 3.89384C2.0964 3.44997 2.36553 3.04664 2.70499 2.70692C3.04445 2.3672 3.44759 2.09778 3.89132 1.91408C4.33505 1.73038 4.81066 1.636 5.29091 1.63636ZM13.8305 3.42655C13.66 3.427 13.4949 3.48649 13.3633 3.59492C13.2316 3.70334 13.1416 3.85401 13.1085 4.0213C13.0754 4.18859 13.1013 4.36218 13.1817 4.51256C13.2621 4.66294 13.3921 4.78083 13.5497 4.84619C13.7072 4.91155 13.8825 4.92034 14.0457 4.87107C14.209 4.8218 14.3501 4.71751 14.4452 4.57593C14.5403 4.43435 14.5834 4.26422 14.5672 4.09446C14.551 3.9247 14.4765 3.76578 14.3564 3.64473C14.2877 3.57555 14.2061 3.52066 14.1161 3.48321C14.0261 3.44576 13.9296 3.4265 13.8322 3.42655H13.8305ZM9 4.09091C8.02907 4.09091 7.07995 4.37882 6.27266 4.91824C5.46536 5.45766 4.83615 6.22435 4.46459 7.12137C4.09303 8.01839 3.99582 9.00545 4.18524 9.95772C4.37465 10.91 4.8422 11.7847 5.52875 12.4713C6.2153 13.1578 7.09001 13.6253 8.04228 13.8148C8.99455 14.0042 9.98161 13.907 10.8786 13.5354C11.7756 13.1639 12.5423 12.5346 13.0818 11.7273C13.6212 10.92 13.9091 9.97093 13.9091 9C13.9053 7.69918 13.3869 6.45271 12.4671 5.53288C11.5473 4.61306 10.3008 4.09465 9 4.09091ZM9 5.72727C9.64728 5.72727 10.28 5.91922 10.8182 6.27883C11.3564 6.63844 11.7759 7.14957 12.0236 7.74758C12.2713 8.34559 12.3361 9.00363 12.2098 9.63848C12.0836 10.2733 11.7719 10.8565 11.3142 11.3142C10.8565 11.7719 10.2733 12.0836 9.63848 12.2098C9.00363 12.3361 8.34559 12.2713 7.74758 12.0236C7.14957 11.7759 6.63844 11.3564 6.27883 10.8182C5.91922 10.28 5.72727 9.64728 5.72727 9C5.7254 8.56969 5.80877 8.14328 5.97257 7.74536C6.13638 7.34745 6.37737 6.98592 6.68165 6.68165C6.98592 6.37737 7.34745 6.13638 7.74536 5.97257C8.14328 5.80877 8.56969 5.7254 9 5.72727Z" fill="#7C7A7A"/>
</svg>
