<svg width="65" height="65" viewBox="0 0 65 65" fill="none" xmlns="http://www.w3.org/2000/svg">
<circle cx="32.5" cy="32.5" r="32.5" fill="#EB7100"/>
<g clip-path="url(#clip0)">
<rect width="29.4907" height="29.4907" transform="translate(17.4537 17.4536)" fill="#EB7100"/>
<path fill-rule="evenodd" clip-rule="evenodd" d="M32.199 19.9112C29.5919 19.9112 27.0915 20.9469 25.248 22.7904C23.4044 24.6339 22.3688 27.1343 22.3688 29.7414C22.3688 33.5483 24.8457 37.2422 27.5615 40.109C28.8943 41.5158 30.2313 42.6675 31.2365 43.4679C31.6106 43.7658 31.9373 44.014 32.199 44.2073C32.4607 44.014 32.7874 43.7658 33.1615 43.4679C34.1667 42.6675 35.5037 41.5158 36.8365 40.109C39.5524 37.2422 42.0293 33.5483 42.0293 29.7414C42.0293 27.1343 40.9936 24.6339 39.15 22.7904C37.3065 20.9469 34.8061 19.9112 32.199 19.9112ZM32.199 45.7156C31.5174 46.738 31.5171 46.7378 31.5167 46.7375L31.5132 46.7352L31.505 46.7297L31.4769 46.7106C31.4529 46.6944 31.4188 46.6711 31.3752 46.6408C31.2879 46.5804 31.1625 46.4923 31.0044 46.3781C30.6883 46.1498 30.2408 45.8166 29.7056 45.3904C28.6372 44.5397 27.2094 43.3106 25.7775 41.7991C22.9638 38.8292 19.9112 34.5361 19.9112 29.7414C19.9112 26.4825 21.2058 23.357 23.5102 21.0526C25.8146 18.7482 28.9401 17.4536 32.199 17.4536C35.4579 17.4536 38.5834 18.7482 40.8878 21.0526C43.1922 23.357 44.4868 26.4825 44.4868 29.7414C44.4868 34.5361 41.4342 38.8292 38.6206 41.7991C37.1886 43.3106 35.7608 44.5397 34.6924 45.3904C34.1572 45.8166 33.7097 46.1498 33.3936 46.3781C33.2355 46.4923 33.1101 46.5804 33.0228 46.6408C32.9792 46.6711 32.9451 46.6944 32.9211 46.7106L32.893 46.7297L32.8848 46.7352L32.8822 46.7369C32.8818 46.7372 32.8806 46.738 32.199 45.7156ZM32.199 45.7156L32.8806 46.738C32.4679 47.0131 31.9295 47.0127 31.5167 46.7375L32.199 45.7156Z" fill="white"/>
<path fill-rule="evenodd" clip-rule="evenodd" d="M32.199 27.284C30.8417 27.284 29.7414 28.3843 29.7414 29.7415C29.7414 31.0988 30.8417 32.1991 32.199 32.1991C33.5563 32.1991 34.6566 31.0988 34.6566 29.7415C34.6566 28.3843 33.5563 27.284 32.199 27.284ZM27.2839 29.7415C27.2839 27.027 29.4845 24.8264 32.199 24.8264C34.9135 24.8264 37.1141 27.027 37.1141 29.7415C37.1141 32.4561 34.9135 34.6567 32.199 34.6567C29.4845 34.6567 27.2839 32.4561 27.2839 29.7415Z" fill="white"/>
</g>
<defs>
<clipPath id="clip0">
<rect width="29.4907" height="29.4907" fill="white" transform="translate(17.4537 17.4536)"/>
</clipPath>
</defs>
</svg>
