<svg width="65" height="65" viewBox="0 0 65 65" fill="none" xmlns="http://www.w3.org/2000/svg">
<circle cx="32.5" cy="32.5" r="32.5" fill="#EB7100"/>
<rect width="29.4907" height="29.4907" transform="translate(17.4537 17.4536)" fill="#EB7100"/>
<path fill-rule="evenodd" clip-rule="evenodd" d="M22.3688 23.5975C21.6958 23.5975 21.1401 24.1532 21.1401 24.8262V39.5716C21.1401 40.2446 21.6958 40.8004 22.3688 40.8004H42.0293C42.7024 40.8004 43.2581 40.2446 43.2581 39.5716V24.8262C43.2581 24.1532 42.7024 23.5975 42.0293 23.5975H22.3688ZM18.6825 24.8262C18.6825 22.7959 20.3385 21.1399 22.3688 21.1399H42.0293C44.0596 21.1399 45.7157 22.7959 45.7157 24.8262V39.5716C45.7157 41.6019 44.0596 43.2579 42.0293 43.2579H22.3688C20.3385 43.2579 18.6825 41.6019 18.6825 39.5716V24.8262Z" fill="white"/>
<path fill-rule="evenodd" clip-rule="evenodd" d="M18.9047 24.1216C19.2939 23.5657 20.0601 23.4305 20.616 23.8196L32.1992 31.9278L43.7823 23.8196C44.3383 23.4305 45.1045 23.5657 45.4936 24.1216C45.8828 24.6776 45.7476 25.4438 45.1917 25.833L32.9038 34.4344C32.4808 34.7306 31.9176 34.7306 31.4945 34.4344L19.2067 25.833C18.6508 25.4438 18.5156 24.6776 18.9047 24.1216Z" fill="white"/>
</svg>
