<svg width="35" height="34" viewBox="0 0 35 34" fill="none" xmlns="http://www.w3.org/2000/svg">
<path fill-rule="evenodd" clip-rule="evenodd" d="M17.5 2.83333C14.4058 2.83333 11.4384 4.02738 9.25044 6.15279C7.06252 8.2782 5.83335 11.1609 5.83335 14.1667C5.83335 18.5556 8.77297 22.8144 11.9962 26.1194C13.578 27.7414 15.1647 29.0692 16.3577 29.992C16.8016 30.3355 17.1894 30.6215 17.5 30.8445C17.8106 30.6215 18.1984 30.3355 18.6424 29.992C19.8353 29.0692 21.422 27.7414 23.0038 26.1194C26.2271 22.8144 29.1667 18.5556 29.1667 14.1667C29.1667 11.1609 27.9375 8.2782 25.7496 6.15279C23.5617 4.02738 20.5942 2.83333 17.5 2.83333ZM17.5 32.5833C16.6911 33.7621 16.6907 33.7618 16.6903 33.7616L16.6861 33.7589L16.6764 33.7525L16.643 33.7306C16.6146 33.7118 16.5741 33.6849 16.5223 33.6501C16.4187 33.5804 16.2699 33.4789 16.0822 33.3472C15.7071 33.084 15.176 32.6998 14.5408 32.2085C13.2728 31.2276 11.5783 29.8107 9.87884 28.0681C6.53957 24.644 2.91669 19.6944 2.91669 14.1667C2.91669 10.4094 4.45314 6.80609 7.18805 4.14932C9.92295 1.49256 13.6323 0 17.5 0C21.3678 0 25.0771 1.49256 27.812 4.14932C30.5469 6.80609 32.0834 10.4094 32.0834 14.1667C32.0834 19.6944 28.4605 24.644 25.1212 28.0681C23.4217 29.8107 21.7272 31.2276 20.4592 32.2085C19.8241 32.6998 19.293 33.084 18.9178 33.3472C18.7302 33.4789 18.5813 33.5804 18.4778 33.6501C18.426 33.6849 18.3855 33.7118 18.3571 33.7306L18.3236 33.7525L18.3139 33.7589L18.3108 33.7609C18.3104 33.7611 18.309 33.7621 17.5 32.5833ZM17.5 32.5833L18.309 33.7621C17.8191 34.0793 17.1801 34.0788 16.6903 33.7616L17.5 32.5833Z" fill="white"/>
<path fill-rule="evenodd" clip-rule="evenodd" d="M17.5 11.3333C15.8892 11.3333 14.5834 12.6019 14.5834 14.1667C14.5834 15.7315 15.8892 17 17.5 17C19.1109 17 20.4167 15.7315 20.4167 14.1667C20.4167 12.6019 19.1109 11.3333 17.5 11.3333ZM11.6667 14.1667C11.6667 11.0371 14.2784 8.5 17.5 8.5C20.7217 8.5 23.3334 11.0371 23.3334 14.1667C23.3334 17.2963 20.7217 19.8333 17.5 19.8333C14.2784 19.8333 11.6667 17.2963 11.6667 14.1667Z" fill="white"/>
</svg>
