<svg width="65" height="65" viewBox="0 0 65 65" fill="none" xmlns="http://www.w3.org/2000/svg">
<circle cx="32.5" cy="32.5" r="32.5" fill="#EB7100"/>
<g clip-path="url(#clip0)">
<rect width="29.4907" height="29.4907" transform="translate(17.4537 19.8611)" fill="#EB7100"/>
<path d="M42.0294 48.0002C41.9065 48.0002 41.7836 48.0002 41.6607 48.0002C37.7286 47.5087 33.7965 46.1571 30.4788 44.0681C27.4069 42.1021 24.7036 39.3988 22.7375 36.3268C20.5257 33.0091 19.1741 29.077 18.8054 25.1449C18.8054 24.1619 19.0512 23.1789 19.6656 22.4416C20.28 21.7043 21.1401 21.2128 22.1231 21.0899C22.246 21.0899 22.3689 21.0899 22.4918 21.0899H26.1781C28.0213 21.0899 29.6187 22.4416 29.8644 24.2848C29.9873 25.3907 30.2331 26.4966 30.6017 27.4796C31.0932 28.8313 30.7246 30.3058 29.7416 31.4117L28.8814 32.2718C30.356 34.4837 32.1991 36.4497 34.5338 37.9242L35.394 37.0641C36.377 36.0811 37.9744 35.7124 39.3261 36.2039C40.3091 36.5726 41.415 36.8183 42.5209 36.9412C44.3641 37.187 45.7157 38.7844 45.7157 40.6276V44.3139C45.7157 45.2969 45.3471 46.2799 44.6098 46.8943C43.8726 47.5087 43.0124 48.0002 42.0294 48.0002ZM26.1781 23.5475H22.4918C22.1231 23.5475 21.7545 23.7933 21.5087 24.039C21.3859 24.2848 21.263 24.5305 21.263 24.8992C21.6316 28.4626 22.8604 31.9032 24.8264 34.9752C26.6696 37.8014 29.0043 40.2589 31.8305 41.9792C34.9025 43.9453 38.343 45.174 41.9065 45.5427C42.398 45.5427 42.6438 45.4198 42.8895 45.174C43.1353 44.9283 43.2582 44.6825 43.2582 44.3139V40.6276C43.2582 40.0132 42.7666 39.5217 42.1523 39.3988C40.9235 39.2759 39.6947 38.9073 38.4659 38.4158C37.9744 38.2929 37.4829 38.2929 37.1143 38.6615L35.5168 40.2589C35.1482 40.6276 34.5338 40.7504 34.0423 40.5047C30.7246 38.6615 28.0213 35.9582 26.1781 32.6405C26.0552 32.149 26.1781 31.5346 26.5467 31.1659L28.1442 29.5685C28.3899 29.3228 28.5128 28.7084 28.3899 28.3397C27.8984 27.111 27.6526 25.8822 27.4069 24.6534C27.4069 24.039 26.7925 23.5475 26.1781 23.5475ZM40.8006 32.149C40.1862 32.149 39.6947 31.7803 39.5718 31.1659C39.2032 29.1999 37.6058 27.7254 35.6397 27.2338C35.0253 27.111 34.5338 26.4966 34.6567 25.7593C34.7796 25.1449 35.394 24.6534 36.1312 24.7763C39.0803 25.3907 41.415 27.6025 41.9065 30.5516C42.0294 31.1659 41.6607 31.9032 40.9235 32.0261C40.9235 32.0261 40.9235 32.149 40.8006 32.149ZM45.7157 32.0261C45.1013 32.0261 44.6098 31.5346 44.4869 30.9202C43.9954 26.3737 40.432 22.8102 35.7626 22.1958C35.1482 22.073 34.6567 21.4586 34.6567 20.8442C34.6567 20.2298 35.394 19.7383 36.0084 19.7383C41.7836 20.3527 46.2072 24.7763 46.8216 30.5516C46.9445 31.1659 46.453 31.7803 45.7157 31.9032C45.8386 32.0261 45.7157 32.0261 45.7157 32.0261Z" fill="white"/>
</g>
<defs>
<clipPath id="clip0">
<rect width="29.4907" height="29.4907" fill="white" transform="translate(17.4537 19.8611)"/>
</clipPath>
</defs>
</svg>
