<svg width="34" height="35" viewBox="0 0 34 35" fill="none" xmlns="http://www.w3.org/2000/svg">
<g clip-path="url(#clip0)">
<path d="M28.3334 33.3957C28.1918 33.3957 28.0501 33.3957 27.9084 33.3957C23.3751 32.8123 18.8418 31.2082 15.0168 28.729C11.4751 26.3957 8.35843 23.1873 6.09176 19.5415C3.54176 15.604 1.98343 10.9373 1.55843 6.27067C1.55843 5.104 1.84176 3.93734 2.55009 3.06234C3.25843 2.18734 4.25009 1.604 5.38343 1.45817C5.52509 1.45817 5.66676 1.45817 5.80843 1.45817H10.0584C12.1834 1.45817 14.0251 3.06234 14.3084 5.24984C14.4501 6.56234 14.7334 7.87484 15.1584 9.0415C15.7251 10.6457 15.3001 12.3957 14.1668 13.7082L13.1751 14.729C14.8751 17.354 17.0001 19.6873 19.6918 21.4373L20.6834 20.4165C21.8168 19.2498 23.6584 18.8123 25.2168 19.3957C26.3501 19.8332 27.6251 20.1248 28.9001 20.2707C31.0251 20.5623 32.5834 22.4582 32.5834 24.6457V29.0207C32.5834 30.1873 32.1584 31.354 31.3084 32.0832C30.4584 32.8123 29.4668 33.3957 28.3334 33.3957ZM10.0584 4.37484H5.80843C5.38343 4.37484 4.95843 4.6665 4.67509 4.95817C4.53343 5.24984 4.39176 5.5415 4.39176 5.979C4.81676 10.2082 6.23343 14.2915 8.50009 17.9373C10.6251 21.2915 13.3168 24.2082 16.5751 26.2498C20.1168 28.5832 24.0834 30.0415 28.1918 30.479C28.7584 30.479 29.0418 30.3332 29.3251 30.0415C29.6084 29.7498 29.7501 29.4582 29.7501 29.0207V24.6457C29.7501 23.9165 29.1834 23.3332 28.4751 23.1873C27.0584 23.0415 25.6418 22.604 24.2251 22.0207C23.6584 21.8748 23.0918 21.8748 22.6668 22.3123L20.8251 24.2082C20.4001 24.6457 19.6918 24.7915 19.1251 24.4998C15.3001 22.3123 12.1834 19.104 10.0584 15.1665C9.91676 14.5832 10.0584 13.854 10.4834 13.4165L12.3251 11.5207C12.6084 11.229 12.7501 10.4998 12.6084 10.0623C12.0418 8.604 11.7584 7.14567 11.4751 5.68734C11.4751 4.95817 10.7668 4.37484 10.0584 4.37484ZM26.9168 14.5832C26.2084 14.5832 25.6418 14.1457 25.5001 13.4165C25.0751 11.0832 23.2334 9.33317 20.9668 8.74984C20.2584 8.604 19.6918 7.87484 19.8334 6.99984C19.9751 6.27067 20.6834 5.68734 21.5334 5.83317C24.9334 6.56234 27.6251 9.18734 28.1918 12.6873C28.3334 13.4165 27.9084 14.2915 27.0584 14.4373C27.0584 14.4373 27.0584 14.5832 26.9168 14.5832ZM32.5834 14.4373C31.8751 14.4373 31.3084 13.854 31.1668 13.1248C30.6001 7.729 26.4918 3.49984 21.1084 2.77067C20.4001 2.62484 19.8334 1.89567 19.8334 1.1665C19.8334 0.437337 20.6834 -0.145996 21.3918 -0.145996C28.0501 0.583171 33.1501 5.83317 33.8584 12.6873C34.0001 13.4165 33.4334 14.1457 32.5834 14.2915C32.7251 14.4373 32.5834 14.4373 32.5834 14.4373Z" fill="white"/>
</g>
<defs>
<clipPath id="clip0">
<rect width="34" height="35" fill="white"/>
</clipPath>
</defs>
</svg>
