<svg width="18" height="18" viewBox="0 0 18 18" fill="none" xmlns="http://www.w3.org/2000/svg">
<g clip-path="url(#clip0)">
<path opacity="0.7" d="M9 0C7.21996 0 5.47991 0.527841 3.99986 1.51677C2.51982 2.50571 1.36627 3.91131 0.685081 5.55585C0.00389194 7.20038 -0.174338 9.00998 0.172929 10.7558C0.520196 12.5016 1.37736 14.1053 2.63604 15.364C3.89471 16.6226 5.49835 17.4798 7.24418 17.8271C8.99001 18.1743 10.7996 17.9961 12.4441 17.3149C14.0887 16.6337 15.4943 15.4802 16.4832 14.0001C17.4722 12.5201 18 10.78 18 9C17.9974 6.61385 17.0484 4.32617 15.3611 2.63891C13.6738 0.951645 11.3861 0.00259882 9 0ZM9.99491 12.0207C9.65333 12.0443 9.31141 11.9798 9.00195 11.8333C8.69249 11.6867 8.42586 11.4632 8.22763 11.184C8.22763 11.184 7.99745 12.0873 7.82836 12.7298C7.75156 13.082 7.62964 13.4228 7.46563 13.7438C7.23828 14.1754 6.9813 14.5908 6.69654 14.9869C6.59072 15.144 6.45927 15.2744 6.38181 15.2596C6.30436 15.2449 6.30491 15.1636 6.28581 14.9945C6.22636 14.4821 6.20466 13.966 6.22091 13.4504C6.25296 13.139 6.30084 12.8295 6.36436 12.5231L7.23709 8.95909C6.702 7.86055 7.14109 6.14509 8.36072 6.14509C9.22581 6.14509 9.45163 6.92836 9.18763 7.86927C9.06981 8.28927 8.7 9.46636 8.68854 9.522C8.66538 9.61639 8.65438 9.71336 8.65582 9.81055C8.66088 9.957 8.69557 10.1009 8.75777 10.2336C8.81998 10.3663 8.90842 10.485 9.01776 10.5825C9.12709 10.6801 9.25506 10.7545 9.39394 10.8012C9.53282 10.848 9.67974 10.8661 9.82582 10.8545C11.2909 10.8545 11.9847 8.68855 11.9847 7.23982C11.9847 6.07473 11.2445 4.668 9.08291 4.668C8.64587 4.64801 8.20927 4.71599 7.79899 4.86789C7.38872 5.01979 7.01312 5.25253 6.69448 5.5523C6.37583 5.85208 6.12062 6.21278 5.94398 6.61303C5.76735 7.01328 5.67288 7.44492 5.66618 7.88236C5.6498 8.13725 5.68551 8.3928 5.77113 8.63344C5.85675 8.87407 5.99048 9.09474 6.16418 9.282C6.20107 9.32205 6.22643 9.37134 6.23757 9.42464C6.2487 9.47794 6.24521 9.53326 6.22745 9.58473L6.08836 10.1422C6.03709 10.3265 5.87018 10.4215 5.64109 10.2862C5.412 10.1509 4.30418 9.68618 4.30418 7.68818C4.30418 5.64218 6.23181 3.52091 9.22309 3.52091C11.598 3.52091 13.6958 5.01436 13.6958 7.43455C13.6958 10.4225 11.8298 12.0207 9.99491 12.0207Z" fill="#7C7A7A"/>
</g>
<defs>
<clipPath id="clip0">
<rect width="18" height="18" fill="white"/>
</clipPath>
</defs>
</svg>
